Genre:Comedy | Drama | Music
Language:English
IMDb:http://www.imdb.com/title/tt1259227/
Source:DvDScr.Thx
Sample:Yes

General
Complete name :Soul.Boy.2010.DvDScr.XviD.Feel-Free
Format : AVI
Format/Info : Audio Video Interleave
File size : 629 MiB
Duration : 1h 20mn
Overall bit rate : 1 094 Kbps
Video #0
Codec ID : XVID
Codec ID/Hint : XviD
Duration : 1h 20mn
Bit rate : 954 Kbps
Width : 720 pixels
Height : 304 pixels
Display aspect ratio : 2.35:1
Frame rate : 25.000 fps
Resolution : 24 bits
Colorimetry : 4:2:0
Scan type : Progressive
Bits/(Pixel*Frame) : 0.174
Stream size : 549 MiB (87%)
Writing library : XviD 1.2.1 (UTC 2008-12-04)
Audio #1
ID : 1
Format : MPEG Audio
Format version : Version 1
Format profile : Layer 3
Codec ID : 55
Codec ID/Hint : MP3
Duration : 1h 20mn
Bit rate mode : Constant
Bit rate : 128 Kbps
Channel(s) : 2 channels
Sampling rate : 44.1 KHz
Resolution : 16 bits
Stream size : 73.6 MiB (12%)
Alignment : Aligned on interleaves
Interleave, duration : 26 ms (0.65 video frame)
Interleave, preload duration : 522 ms

Plot:
A coming-of-age drama set in the 1970s Northern Soul underground music scene.

